<svg xmlns="http://www.w3.org/2000/svg" width="25.566" height="25.566" viewBox="0 0 25.566 25.566">
  <path id="Icon_awesome-check-circle" data-name="Icon awesome-check-circle" d="M25.281,12.922A12.359,12.359,0,1,1,12.922.563,12.359,12.359,0,0,1,25.281,12.922ZM11.492,19.466l9.17-9.17a.8.8,0,0,0,0-1.128L19.534,8.041a.8.8,0,0,0-1.128,0l-7.478,7.478L7.437,12.028a.8.8,0,0,0-1.128,0L5.182,13.155a.8.8,0,0,0,0,1.128l5.183,5.183A.8.8,0,0,0,11.492,19.466Z" transform="matrix(0.999, 0.035, -0.035, 0.999, 0.32, -0.582)" fill="#00ff3c"/>
</svg>
