<svg xmlns="http://www.w3.org/2000/svg" viewBox="0 0 110 110"><defs><style>.cls-1,.cls-4{fill:#652d89;}.cls-2{fill:#fff;}.cls-3{fill:none;}.cls-4{fill-rule:evenodd;}</style></defs><title>ჯეოლაბის ლოგოები ზომებით (თათუნას ფაილი)</title><g id="Layer_2" data-name="Layer 2"><path class="cls-1" d="M55.64,55.89l.93-.93a3.13,3.13,0,0,1,4.09-3.63l-2.11,2.05L60.12,55l2.11-2a2.94,2.94,0,0,1,.12,1.38,2.9,2.9,0,0,1-.88,1.93,2.93,2.93,0,0,1-3,.68l-1,1-2.95,2.95L53.5,61.92a2.39,2.39,0,1,1-2-1.9l1.18-1.18Z"/><circle class="cls-2" cx="51.16" cy="62.35" r="0.83" transform="translate(-0.08 0.07) rotate(-0.07)"/><path class="cls-1" d="M52.69,58.84l-3.25-3.51a.42.42,0,0,1-.13-.2l-.86-3.41a.41.41,0,0,1,.11-.4h0a.41.41,0,0,1,.41-.08l3.33,1.12a.41.41,0,0,1,.19.15l3.15,3.39,1.88,2,3.34,3.6a1.06,1.06,0,0,1,0,1.5L59.3,64.42a1.06,1.06,0,0,1-1.5-.08l-3.23-3.48Z"/><path class="cls-2" d="M52.72,53.82a.14.14,0,0,0-.2,0l-.11.11a.14.14,0,0,0,0,.2l6.06,6.54a.14.14,0,0,0,.2,0l.11-.1a.14.14,0,0,0,0-.2Z"/><polygon class="cls-2" points="51.88 52.78 50.21 52.22 49.48 52.9 49.91 54.6 51.88 52.78"/><path class="cls-2" d="M58.1,63.42a.69.69,0,0,0,1,.05l1-.91a.68.68,0,0,0,0-1L59.48,61l-2,1.83Z"/><path class="cls-1" d="M41.39,44.6h0"/><circle class="cls-1" cx="66.5" cy="53.09" r="0.89"/><circle class="cls-1" cx="64.11" cy="48.72" r="0.89"/><circle class="cls-1" cx="47.16" cy="48.36" r="0.89"/><circle class="cls-1" cx="44.29" cy="52.65" r="0.89"/><path class="cls-1" d="M45,59.36a1.35,1.35,0,0,1-.43,0l-.31.5-.46-.18.12-.58a1.42,1.42,0,0,1-.31-.3l-.58.14-.2-.45.5-.32a1.42,1.42,0,0,1,0-.43l-.51-.3L43,57l.58.12a1.39,1.39,0,0,1,.3-.31l-.15-.58.46-.2.33.5a1.54,1.54,0,0,1,.42,0l.31-.51.46.18-.12.59a1.43,1.43,0,0,1,.31.3l.58-.15.2.46-.5.33a1.48,1.48,0,0,1,0,.43l.51.31-.18.46L46,58.78a1.47,1.47,0,0,1-.3.31l.14.57-.45.2Z"/><circle class="cls-1" cx="46.28" cy="63.55" r="0.89"/><path class="cls-1" d="M49.42,68.47a.89.89,0,1,1,.89-.89A.89.89,0,0,1,49.42,68.47Z"/><path class="cls-3" d="M40.15,36.54A8.87,8.87,0,0,0,42,36.9a.59.59,0,0,0-.06.26l0,1a.61.61,0,0,0,.63.59l1,0a.61.61,0,0,0,.59-.62l0-1a.57.57,0,0,0-.07-.25,8.89,8.89,0,0,0,1.83-.48.56.56,0,0,0,.07.24l.46.85a.62.62,0,0,0,.82.25l.88-.46a.61.61,0,0,0,.25-.82L48,35.57a.59.59,0,0,0-.16-.19,8.84,8.84,0,0,0,1.43-1.22.61.61,0,0,0,.16.17l.79.57a.61.61,0,0,0,.85-.13l.59-.8a.6.6,0,0,0-.14-.84l-.79-.56a.57.57,0,0,0-.21-.09,8.67,8.67,0,0,0,.74-1.72.59.59,0,0,0,.2.08l1,.17a.62.62,0,0,0,.71-.49l.17-1a.61.61,0,0,0-.49-.7l-1-.17a.56.56,0,0,0-.21,0,8.6,8.6,0,0,0-.09-1.87.68.68,0,0,0,.2,0l.94-.27a.61.61,0,0,0,.42-.75l-.28-.95a.61.61,0,0,0-.75-.42l-.94.27a.57.57,0,0,0-.18.09A8.66,8.66,0,0,0,50,23.14a.64.64,0,0,0,.17-.1l.72-.65a.6.6,0,0,0,0-.85l-.67-.73a.61.61,0,0,0-.86,0l-.72.64a.57.57,0,0,0-.11.15,9,9,0,0,0-1.39-1l-.16-.08a.6.6,0,0,0,.11-.16l.37-.9a.61.61,0,0,0-.33-.78l-.92-.37a.61.61,0,0,0-.8.33l-.36.9a.6.6,0,0,0,0,.19,8.59,8.59,0,0,0-1.24-.25.57.57,0,0,0,0-.19v-1a.61.61,0,0,0-.61-.6h-1a.61.61,0,0,0-.61.6v1a.6.6,0,0,0,0,.2,8.91,8.91,0,0,0-1.84.43.53.53,0,0,0-.05-.21l-.43-.87a.61.61,0,0,0-.82-.28l-.89.43a.61.61,0,0,0-.28.81l.43.87a.61.61,0,0,0,.14.17A8.59,8.59,0,0,0,36.49,22a.65.65,0,0,0-.15-.17l-.77-.59a.61.61,0,0,0-.85.1l-.61.78a.6.6,0,0,0,.1.85l.77.59a.58.58,0,0,0,.21.11l-.07.11a8.62,8.62,0,0,0-.72,1.58.58.58,0,0,0-.22-.1l-1-.2a.61.61,0,0,0-.72.46l-.21,1a.6.6,0,0,0,.47.72l.95.2a.62.62,0,0,0,.26,0,8.65,8.65,0,0,0,0,1.88.58.58,0,0,0-.27,0l-.94.23a.61.61,0,0,0-.45.73l.24,1a.61.61,0,0,0,.74.44l.95-.23a.62.62,0,0,0,.24-.12A8.84,8.84,0,0,0,35.4,33a.58.58,0,0,0-.25.12l-.75.62a.6.6,0,0,0-.08.85l.64.76a.62.62,0,0,0,.86.07l.75-.62a.59.59,0,0,0,.16-.22,8.82,8.82,0,0,0,1.52,1.14.58.58,0,0,0-.17.22l-.4.88a.61.61,0,0,0,.31.8l.91.4a.62.62,0,0,0,.81-.31l.4-.88A.57.57,0,0,0,40.15,36.54Zm6.91-11.83a5.51,5.51,0,0,1,0,7l-2-2a2.66,2.66,0,0,0,.41-1.88,2.69,2.69,0,0,0-.4-1Zm-4.28-2a5.5,5.5,0,0,1,3.49,1.25l-2,2a2.66,2.66,0,0,0-2.93,0l-2-2A5.5,5.5,0,0,1,42.78,22.68Zm1.28,6.45a1.58,1.58,0,1,1-1.52-2.48l.25,0A1.59,1.59,0,0,1,44.34,28,1.56,1.56,0,0,1,44.06,29.13ZM38.51,31.7a5.51,5.51,0,0,1,0-7l2,2a2.64,2.64,0,0,0,0,2.92Zm.78.78,2-2a2.67,2.67,0,0,0,1.46.44,2.68,2.68,0,0,0,1.47-.44l2,2a5.51,5.51,0,0,1-7,0Z"/><path class="cls-3" d="M55,23.76c1.5-4.57,5-8.38,9.45-11,.25-.15.52-.28.77-.42a18.54,18.54,0,0,0-20.41,0c.24.14.51.26.74.4C50,15.38,53.49,19.19,55,23.76Z"/><path class="cls-3" d="M55,43.35a16.41,16.41,0,0,0,1.95-1.77,3.59,3.59,0,0,0-.56-.29h0a3.62,3.62,0,0,0-2.75,0h0a3.61,3.61,0,0,0-.57.3A16.39,16.39,0,0,0,55,43.35Z"/><path class="cls-3" d="M53.89,37.53a7.24,7.24,0,0,1,2.13,0l.83-1.36a8.82,8.82,0,0,1,1.39.42h0l.26.12L55,32.45l-3.51,4.25A8.76,8.76,0,0,1,53,36.18Z"/><path class="cls-3" d="M77.22,28.83l-1-.17a.58.58,0,0,0-.21,0A8.61,8.61,0,0,0,76,26.81a.64.64,0,0,0,.2,0l.94-.27a.61.61,0,0,0,.42-.75l-.28-.95a.62.62,0,0,0-.75-.42l-.94.27a.62.62,0,0,0-.18.09,8.65,8.65,0,0,0-.91-1.64.69.69,0,0,0,.17-.1l.72-.65a.6.6,0,0,0,0-.85l-.67-.73a.61.61,0,0,0-.86,0l-.72.64a.61.61,0,0,0-.11.15,9,9,0,0,0-1.39-1l-.16-.08a.62.62,0,0,0,.11-.16l.37-.9a.61.61,0,0,0-.33-.79l-.92-.37a.62.62,0,0,0-.8.33l-.36.9a.58.58,0,0,0,0,.19,8.54,8.54,0,0,0-1.24-.25.58.58,0,0,0,0-.19v-1a.61.61,0,0,0-.61-.6h-1a.61.61,0,0,0-.61.6v1a.57.57,0,0,0,0,.2,9,9,0,0,0-1.84.43.54.54,0,0,0-.05-.21l-.43-.87a.62.62,0,0,0-.82-.28L62.1,19a.61.61,0,0,0-.28.81l.43.87a.6.6,0,0,0,.14.17A8.64,8.64,0,0,0,60.92,22a.67.67,0,0,0-.15-.17L60,21.24a.61.61,0,0,0-.85.1l-.61.78a.6.6,0,0,0,.1.85l.77.59a.6.6,0,0,0,.21.11l-.07.11a8.69,8.69,0,0,0-.72,1.58.58.58,0,0,0-.22-.1l-1-.2a.61.61,0,0,0-.72.46l-.21,1a.61.61,0,0,0,.47.72l.95.2a.6.6,0,0,0,.26,0,8.65,8.65,0,0,0,0,1.88.59.59,0,0,0-.27,0l-.94.23a.6.6,0,0,0-.45.73l.24,1a.61.61,0,0,0,.74.44l.95-.23A.62.62,0,0,0,59,31.3,8.81,8.81,0,0,0,59.83,33a.59.59,0,0,0-.25.12l-.75.62a.6.6,0,0,0-.08.85l.64.76a.62.62,0,0,0,.86.08l.75-.62a.61.61,0,0,0,.16-.22,8.76,8.76,0,0,0,1.52,1.14.59.59,0,0,0-.17.22l-.4.88a.61.61,0,0,0,.31.8l.91.4a.61.61,0,0,0,.81-.31l.4-.88a.57.57,0,0,0,0-.27,8.8,8.8,0,0,0,1.87.36.58.58,0,0,0-.06.26l0,1a.61.61,0,0,0,.63.58l1,0a.61.61,0,0,0,.59-.62l0-1a.6.6,0,0,0-.07-.25,8.84,8.84,0,0,0,1.83-.48.55.55,0,0,0,.07.24l.46.85a.62.62,0,0,0,.82.25l.88-.46a.61.61,0,0,0,.25-.82l-.46-.85a.59.59,0,0,0-.16-.19,8.75,8.75,0,0,0,1.43-1.22.63.63,0,0,0,.16.17l.79.56a.62.62,0,0,0,.85-.13l.59-.8a.6.6,0,0,0-.13-.84l-.79-.56a.57.57,0,0,0-.21-.1,8.61,8.61,0,0,0,.74-1.72.61.61,0,0,0,.2.08l1,.17a.62.62,0,0,0,.71-.49l.17-1A.61.61,0,0,0,77.22,28.83Zm-10-6.15a5.51,5.51,0,0,1,4.2,1.94H63A5.52,5.52,0,0,1,67.22,22.68Zm0,11A5.51,5.51,0,0,1,63,31.79h8.4A5.51,5.51,0,0,1,67.22,33.73Zm4.93-3H62.28a5.47,5.47,0,0,1-.57-1.92h11A5.47,5.47,0,0,1,72.15,30.68Zm-10.43-3a5.48,5.48,0,0,1,.56-1.92h9.87a5.48,5.48,0,0,1,.56,1.92Z"/><polygon class="cls-3" points="51.41 76.34 51.41 76.34 51.41 76.34 51.41 76.34"/><path class="cls-3" d="M58.1,46.8Z"/><path class="cls-3" d="M55,45.75a16.57,16.57,0,0,0-3.45.36v0h0a3.84,3.84,0,0,0,2.08,2.08h0a3.62,3.62,0,0,0,2.75,0h0a3.91,3.91,0,0,0,2.08-2.08h0v0h0A16.57,16.57,0,0,0,55,45.75Z"/><path class="cls-3" d="M63.18,48h0c-.08.21-.18.42-.28.62l0,.11c-.08.15-.17.3-.25.45l-.14.24h0l-1.56-.35a7.21,7.21,0,0,1-1.5,1.52l.37,1.55h0A8.75,8.75,0,0,1,57,53.32L56.12,52A7.24,7.24,0,0,1,54,52l-.83,1.36a8.82,8.82,0,0,1-1.39-.42h0c-.21-.08-.42-.18-.62-.28l-.11,0-.45-.25-.24-.14h0l.35-1.56a7.21,7.21,0,0,1-1.52-1.5l-1.55.37h0A8.74,8.74,0,0,1,46.83,48c-4.21,2.52-6.77,6.83-6.77,11,0,7.1,5.57,14,9.91,18.39l.18.16c.19-.26.08-.09,0,0h0a6,6,0,0,1,1.22-1.2c-.41.31,0,0,0,0l-.56-2.49,2-.79,1.35,2.18a6,6,0,0,1,1.82,0l1.36-2.16,2,.83-.59,2.49c.45.33,0,0,0,0a6.61,6.61,0,0,1,1.11,1.11l.19-.17a47.37,47.37,0,0,0,5.81-7,6.62,6.62,0,0,1-.87-.9l-1.21.31a6.77,6.77,0,0,1-1-2.18l1-.68a5.55,5.55,0,0,1,0-1.67l-1.07-.64a6.86,6.86,0,0,1,.86-2.21l1.22.26A5.72,5.72,0,0,1,66,61.53l-.31-1.21a6.82,6.82,0,0,1,2.18-1l.68,1a10.13,10.13,0,0,1,1.34,0c0-.45.07-.91.07-1.37C69.95,54.81,67.39,50.5,63.18,48Z"/><path class="cls-3" d="M55,77.64a3.66,3.66,0,0,0-3,1.58h0c1.75,1.59,3,2.51,3,2.53s1.26-.95,3-2.53h0A3.66,3.66,0,0,0,55,77.64Z"/><path class="cls-3" d="M51.41,76.34l0,0,0,0Z"/><polygon class="cls-3" points="55.01 81.76 55 81.75 54.99 81.76 55.01 81.76"/><path class="cls-3" d="M66.53,66a2.94,2.94,0,0,0,.78,2,22.85,22.85,0,0,0,2.05-4.94A3,3,0,0,0,66.53,66Z"/><path class="cls-1" d="M40.13,28.63a2.67,2.67,0,0,1,.41-1.88l-2-2a5.51,5.51,0,0,0,0,7l2-2A2.68,2.68,0,0,1,40.13,28.63Z"/><path class="cls-1" d="M46.28,32.48l-2-2a2.66,2.66,0,0,1-2.93,0l-2,2a5.51,5.51,0,0,0,7,0Z"/><path class="cls-1" d="M67.22,22.68A5.52,5.52,0,0,0,63,24.62h8.4A5.51,5.51,0,0,0,67.22,22.68Z"/><path class="cls-1" d="M42.36,25.55a2.65,2.65,0,0,1,1.88.4l2-2a5.51,5.51,0,0,0-7,0l2,2A2.66,2.66,0,0,1,42.36,25.55Z"/><path class="cls-1" d="M45.44,27.79A2.66,2.66,0,0,1,45,29.67l2,2a5.51,5.51,0,0,0,0-7l-2,2A2.69,2.69,0,0,1,45.44,27.79Z"/><path class="cls-1" d="M42.79,26.63l-.25,0a1.58,1.58,0,1,0,1.52,2.48A1.56,1.56,0,0,0,44.34,28,1.59,1.59,0,0,0,42.79,26.63Z"/><path class="cls-1" d="M62.28,25.73a5.48,5.48,0,0,0-.56,1.92h11a5.48,5.48,0,0,0-.56-1.92Z"/><path class="cls-1" d="M67.22,33.73a5.51,5.51,0,0,0,4.2-1.94H63A5.51,5.51,0,0,0,67.22,33.73Z"/><path class="cls-1" d="M73,70.67,73.6,70a5.67,5.67,0,0,1-.61.55Z"/><path class="cls-1" d="M73.64,70l.51-.61h0A5.74,5.74,0,0,1,73.64,70Z"/><path class="cls-1" d="M62.28,30.68h9.86a5.47,5.47,0,0,0,.57-1.92h-11A5.47,5.47,0,0,0,62.28,30.68Z"/><path class="cls-1" d="M68.54,60.41l-.68-1a6.82,6.82,0,0,0-2.18,1L66,61.53a5.72,5.72,0,0,0-1.16,1.2l-1.22-.26a6.86,6.86,0,0,0-.86,2.21l1.07.64a5.55,5.55,0,0,0,0,1.67l-1,.68a6.77,6.77,0,0,0,1,2.18L65,69.54a6.62,6.62,0,0,0,.87.9c.52-.78,1-1.58,1.47-2.4a2.94,2.94,0,0,1,2.05-4.94,16.29,16.29,0,0,0,.51-2.73A10.13,10.13,0,0,0,68.54,60.41Z"/><path class="cls-1" d="M50.12,77.61l0,0h0Z"/><path class="cls-1" d="M51.41,76.34s-.44.33,0,0l0,0Z"/><path class="cls-1" d="M50.15,77.55h0C50.23,77.46,50.34,77.29,50.15,77.55Z"/><path class="cls-1" d="M58.74,76.44s.43.3,0,0l.59-2.49-2-.83L56,75.25a6,6,0,0,0-1.82,0l-1.35-2.18-2,.79.56,2.49h0l0,0a6,6,0,0,0-1.22,1.2L52,79.22a3.67,3.67,0,0,1,6,0l1.83-1.65A6.61,6.61,0,0,0,58.74,76.44Z"/><path class="cls-1" d="M61.08,80.51c.08.53,0,0,0,0Z"/><path class="cls-1" d="M78.37,34.91a12.9,12.9,0,0,0,1.84-6.63s0-.06,0-.1c0-12.88,2.72-20,2.72-20H82.3a36.94,36.94,0,0,0-15.51,3.34,20.15,20.15,0,0,0-23.57,0A36.94,36.94,0,0,0,27.7,8.15h-.63s2.71,7.16,2.73,20c0,0,0,.06,0,.1a12.9,12.9,0,0,0,1.84,6.63c-11.46,14.55-.4,34.29,17.26,46q1.32.88,2.7,1.7,1.68,1,3.42,1.9h0c1.17-.6,2.31-1.25,3.43-1.92q1.36-.81,2.67-1.68a62.64,62.64,0,0,0,10-8.21q1-1,1.91-2l0-.12A5.67,5.67,0,0,0,73.6,70l0,0a5.74,5.74,0,0,0,.5-.61h0q.89-1.07,1.71-2.18C83.61,56.74,86,44.66,78.37,34.91ZM55,9.25A18.49,18.49,0,0,1,65.21,12.3c-.25.14-.53.27-.77.42-4.43,2.66-7.95,6.47-9.45,11-1.5-4.57-5-8.38-9.45-11-.24-.14-.5-.27-.74-.4A18.55,18.55,0,0,1,55,9.25ZM58.1,46.8a3.8,3.8,0,0,1-1.72,1.41h0a3.62,3.62,0,0,1-2.75,0h0a3.84,3.84,0,0,1-2.08-2.08h0v0a16.64,16.64,0,0,1,6.91,0h0v0h0a3.81,3.81,0,0,1-.36.67Zm-1.16-5.22A16.41,16.41,0,0,1,55,43.35a16.39,16.39,0,0,1-1.94-1.77C52,40.45,50.9,38.91,50.9,37.41l.59-.72L55,32.45l3.51,4.25.59.71C59.1,38.91,58,40.44,56.94,41.58ZM38.91,38l-.91-.4a.61.61,0,0,1-.31-.8l.4-.88a.58.58,0,0,1,.17-.22,8.82,8.82,0,0,1-1.52-1.14.59.59,0,0,1-.16.22l-.75.62a.62.62,0,0,1-.86-.07l-.64-.76a.6.6,0,0,1,.08-.85l.75-.62A.58.58,0,0,1,35.4,33a8.84,8.84,0,0,1-.87-1.68.62.62,0,0,1-.24.12l-.95.23a.61.61,0,0,1-.74-.44l-.24-1a.61.61,0,0,1,.45-.73l.94-.23a.58.58,0,0,1,.27,0,8.65,8.65,0,0,1,0-1.88.62.62,0,0,1-.26,0l-.95-.2a.6.6,0,0,1-.47-.72l.21-1a.61.61,0,0,1,.72-.46l1,.2a.58.58,0,0,1,.22.1,8.62,8.62,0,0,1,.72-1.58l.07-.11a.58.58,0,0,1-.21-.11L34.21,23a.6.6,0,0,1-.1-.85l.61-.78a.61.61,0,0,1,.85-.1l.77.59a.65.65,0,0,1,.15.17,8.59,8.59,0,0,1,1.46-1.18.61.61,0,0,1-.14-.17l-.43-.87a.61.61,0,0,1,.28-.81l.89-.43a.61.61,0,0,1,.82.28l.43.87a.53.53,0,0,1,.05.21,8.91,8.91,0,0,1,1.84-.43.6.6,0,0,1,0-.2v-1a.61.61,0,0,1,.61-.6h1a.61.61,0,0,1,.61.6v1a.57.57,0,0,1,0,.19,8.59,8.59,0,0,1,1.24.25.6.6,0,0,1,0-.19l.36-.9a.61.61,0,0,1,.8-.33l.92.37a.61.61,0,0,1,.33.78l-.37.9a.6.6,0,0,1-.11.16l.16.08a9,9,0,0,1,1.39,1,.57.57,0,0,1,.11-.15l.72-.64a.61.61,0,0,1,.86,0l.67.73a.6.6,0,0,1,0,.85L50.2,23a.64.64,0,0,1-.17.1,8.66,8.66,0,0,1,.91,1.64.57.57,0,0,1,.18-.09l.94-.27a.61.61,0,0,1,.75.42l.28.95a.61.61,0,0,1-.42.75l-.94.27a.68.68,0,0,1-.2,0,8.6,8.6,0,0,1,.09,1.87.56.56,0,0,1,.21,0l1,.17a.61.61,0,0,1,.49.7l-.17,1a.62.62,0,0,1-.71.49l-1-.17a.59.59,0,0,1-.2-.08,8.67,8.67,0,0,1-.74,1.72.57.57,0,0,1,.21.09l.79.56a.6.6,0,0,1,.14.84l-.59.8a.61.61,0,0,1-.85.13l-.79-.57a.61.61,0,0,1-.16-.17,8.84,8.84,0,0,1-1.43,1.22.59.59,0,0,1,.16.19l.46.85a.61.61,0,0,1-.25.82l-.88.46a.62.62,0,0,1-.82-.25L46,36.6a.56.56,0,0,1-.07-.24,8.89,8.89,0,0,1-1.83.48.57.57,0,0,1,.07.25l0,1a.61.61,0,0,1-.59.62l-1,0a.61.61,0,0,1-.63-.59l0-1A.59.59,0,0,1,42,36.9a8.87,8.87,0,0,1-1.87-.36.57.57,0,0,1,0,.27l-.4.88A.62.62,0,0,1,38.91,38ZM61.08,80.51h0S61.16,81,61.08,80.51Zm8.8-20.14a16.29,16.29,0,0,1-.51,2.73A22.85,22.85,0,0,1,67.31,68c-.45.82-.95,1.62-1.47,2.4a47.37,47.37,0,0,1-5.81,7l-.19.17L58,79.21h0c-1.75,1.59-3,2.51-3,2.53h0s-1.26-.95-3-2.53h0l-1.83-1.66,0,0,0-.05h0L50,77.39C45.63,73,40.05,66.1,40.05,59c0-4.19,2.56-8.51,6.77-11a8.74,8.74,0,0,0,.79,1.55h0l1.55-.37a7.21,7.21,0,0,0,1.52,1.5l-.35,1.56h0l.24.14.45.25.11,0c.2.1.41.19.62.28h0a8.82,8.82,0,0,0,1.39.42L54,52a7.24,7.24,0,0,0,2.13,0L57,53.32a8.75,8.75,0,0,0,2.8-1.18h0l-.37-1.55a7.21,7.21,0,0,0,1.5-1.52l1.56.35h0l.14-.24c.09-.15.18-.3.25-.45l0-.11c.1-.21.2-.41.28-.62h0c4.21,2.52,6.76,6.83,6.76,11C69.95,59.46,69.92,59.91,69.88,60.37Zm7.66-29.86a.62.62,0,0,1-.71.49l-1-.17a.61.61,0,0,1-.2-.08,8.61,8.61,0,0,1-.74,1.72.57.57,0,0,1,.21.1l.79.56a.6.6,0,0,1,.13.84l-.59.8a.62.62,0,0,1-.85.13l-.79-.56a.63.63,0,0,1-.16-.17,8.75,8.75,0,0,1-1.43,1.22.59.59,0,0,1,.16.19l.46.85a.61.61,0,0,1-.25.82l-.88.46a.62.62,0,0,1-.82-.25l-.46-.85a.55.55,0,0,1-.07-.24,8.84,8.84,0,0,1-1.83.48.6.6,0,0,1,.07.25l0,1a.61.61,0,0,1-.59.62l-1,0a.61.61,0,0,1-.63-.58l0-1a.58.58,0,0,1,.06-.26,8.8,8.8,0,0,1-1.87-.36.57.57,0,0,1,0,.27l-.4.88a.61.61,0,0,1-.81.31l-.91-.4a.61.61,0,0,1-.31-.8l.4-.88a.59.59,0,0,1,.17-.22,8.76,8.76,0,0,1-1.52-1.14.61.61,0,0,1-.16.22l-.75.62a.62.62,0,0,1-.86-.08l-.64-.76a.6.6,0,0,1,.08-.85l.75-.62a.59.59,0,0,1,.25-.12A8.81,8.81,0,0,1,59,31.3a.62.62,0,0,1-.24.12l-.95.23a.61.61,0,0,1-.74-.44l-.24-1a.6.6,0,0,1,.45-.73l.94-.23a.59.59,0,0,1,.27,0,8.65,8.65,0,0,1,0-1.88.6.6,0,0,1-.26,0l-.95-.2a.61.61,0,0,1-.47-.72l.21-1a.61.61,0,0,1,.72-.46l1,.2a.58.58,0,0,1,.22.1,8.69,8.69,0,0,1,.72-1.58l.07-.11a.6.6,0,0,1-.21-.11L58.64,23a.6.6,0,0,1-.1-.85l.61-.78a.61.61,0,0,1,.85-.1l.77.59a.67.67,0,0,1,.15.17,8.64,8.64,0,0,1,1.46-1.18.6.6,0,0,1-.14-.17l-.43-.87A.61.61,0,0,1,62.1,19l.89-.43a.62.62,0,0,1,.82.28l.43.87a.54.54,0,0,1,.05.21,9,9,0,0,1,1.84-.43.57.57,0,0,1,0-.2v-1a.61.61,0,0,1,.61-.6h1a.61.61,0,0,1,.61.6v1a.58.58,0,0,1,0,.19,8.54,8.54,0,0,1,1.24.25.58.58,0,0,1,0-.19l.36-.9a.62.62,0,0,1,.8-.33l.92.37a.61.61,0,0,1,.33.79l-.37.9a.62.62,0,0,1-.11.16l.16.08a9,9,0,0,1,1.39,1,.61.61,0,0,1,.11-.15l.72-.64a.61.61,0,0,1,.86,0l.67.73a.6.6,0,0,1,0,.85l-.72.65a.69.69,0,0,1-.17.1,8.65,8.65,0,0,1,.91,1.64.62.62,0,0,1,.18-.09l.94-.27a.62.62,0,0,1,.75.42l.28.95a.61.61,0,0,1-.42.75l-.94.27a.64.64,0,0,1-.2,0A8.61,8.61,0,0,1,76,28.67a.58.58,0,0,1,.21,0l1,.17a.61.61,0,0,1,.49.7Z"/><path class="cls-4" d="M58.74,95.54c.52,0,1.36,0,1.69-.37a2.21,2.21,0,0,0,.28-1.32V90.75a13.3,13.3,0,0,0-3.56-.48,5.05,5.05,0,0,0-2.12.41,2.78,2.78,0,0,0-1.25,1.09,3.17,3.17,0,0,0-.42,1.65v4.32a3.18,3.18,0,0,0,.42,1.65A2.77,2.77,0,0,0,55,100.48a5.06,5.06,0,0,0,2.12.39c.41,0,.82,0,1.22,0s.78-.07,1.17-.13l.87-.14h0c0-.42-.11-1.24-.47-1.52a2.06,2.06,0,0,0-1.24-.16l-1,.08-.6,0a2.08,2.08,0,0,1-1-.22,1.15,1.15,0,0,1-.53-.6,2.18,2.18,0,0,1-.13-.81V93.83a2.24,2.24,0,0,1,.13-.82,1.25,1.25,0,0,1,.52-.63,1.94,1.94,0,0,1,1-.23h.45l.46,0,.54.06.13,0Zm-35.79,2v3a13.53,13.53,0,0,0,1.7.35,13.3,13.3,0,0,0,1.86.12,5.07,5.07,0,0,0,2.12-.4,2.76,2.76,0,0,0,1.24-1.09,3.18,3.18,0,0,0,.42-1.64v-.54A4.34,4.34,0,0,0,29.77,95a2.79,2.79,0,0,0-2.32-1H27.3v-.81h2.59c0-.46,0-1.21-.33-1.49a2,2,0,0,0-1.18-.25H27.3v-1H25.18v1H23.32c0,.46,0,1.21.33,1.49a2,2,0,0,0,1.18.25h.34v2.38h1.28a1.81,1.81,0,0,1,1.33.43,2,2,0,0,1,.38,1.35v.12a2.31,2.31,0,0,1-.14.82,1.22,1.22,0,0,1-.53.64,2,2,0,0,1-1,.23A6.88,6.88,0,0,1,24.92,99v-.11a2.8,2.8,0,0,0-.08-.58.9.9,0,0,0-.19-.38c-.32-.36-1.18-.37-1.69-.37m8.59-4.34c.23,1.46.36,2,2.06,1.76a2.88,2.88,0,0,1,1.87,0,1.1,1.1,0,0,1,.53.58,2.42,2.42,0,0,1,.14.86v.95a2.4,2.4,0,0,1-.14.85,1.08,1.08,0,0,1-.52.58,2.08,2.08,0,0,1-1,.2c-.59,0-1.14-.2-1.71-.2a2.29,2.29,0,0,0-.56.07.84.84,0,0,0-.37.18c-.32.29-.33,1.07-.33,1.53.47.1.94.17,1.42.23a13.65,13.65,0,0,0,1.55.08,5.11,5.11,0,0,0,2.15-.41,2.67,2.67,0,0,0,1.22-1.08,3.32,3.32,0,0,0,.39-1.65V96a3.31,3.31,0,0,0-.39-1.65,2.67,2.67,0,0,0-1.22-1.08,5.12,5.12,0,0,0-2.15-.41,13.79,13.79,0,0,0-1.55.08c-.42,0-.84.11-1.26.2Zm20.65,7.7V96a3.17,3.17,0,0,0-.42-1.64,2.78,2.78,0,0,0-1.25-1.09,5.05,5.05,0,0,0-2.12-.41,10.34,10.34,0,0,0-2.41.27,16.11,16.11,0,0,0-2.74-.27,5,5,0,0,0-2.12.41,2.78,2.78,0,0,0-1.25,1.09A3.17,3.17,0,0,0,39.45,96v4.86c.55,0,1.47,0,1.81-.4a2.36,2.36,0,0,0,.3-1.42V96.44a2.35,2.35,0,0,1,.14-.83,1.24,1.24,0,0,1,.52-.63,1.94,1.94,0,0,1,1-.23,12.86,12.86,0,0,1,1.59.11v3.41c.52,0,1.37,0,1.69-.37a1.69,1.69,0,0,0,.28-1c0-.67,0-1.36,0-2a12.87,12.87,0,0,1,1.59-.11,1.94,1.94,0,0,1,1,.23,1.24,1.24,0,0,1,.52.63,2.35,2.35,0,0,1,.14.83v2.62a2.37,2.37,0,0,0,.3,1.42c.35.38,1.26.4,1.81.4m9.7-3.07v2.66a12.25,12.25,0,0,0,1.59.33,10,10,0,0,0,3.07,0,3.22,3.22,0,0,0,1-.34,1.75,1.75,0,0,0,.61-.55c.59-.91.4-2.17.4-3.21,0-.33,0-.68,0-1a2.22,2.22,0,0,0-.18-.71,1.35,1.35,0,0,0-.41-.51,3,3,0,0,0-.8-.41,11.77,11.77,0,0,0-1.33-.38c-.31-.07-.63-.15-.93-.24a1.62,1.62,0,0,1-.54-.25.66.66,0,0,1-.2-.27h-2a2.83,2.83,0,0,0,.24,1,1.41,1.41,0,0,0,.43.5,2.93,2.93,0,0,0,.77.38,10.1,10.1,0,0,0,1.21.32c.33.07.66.14,1,.24a1.63,1.63,0,0,1,.56.28.74.74,0,0,1,.24.44,3.29,3.29,0,0,1,0,.57c0,.62.14,1.88-.3,2.33a.92.92,0,0,1-.51.21,7.14,7.14,0,0,1-2.06,0,1.73,1.73,0,0,0-.26-1c-.3-.33-1.1-.35-1.58-.35m10.8-7.49h-2a1.66,1.66,0,0,0,.88,1.59,3.81,3.81,0,0,0,.7.23,1.05,1.05,0,0,1,.53.25,2.61,2.61,0,0,1,.23,1.2l-.14,0a4.67,4.67,0,0,0-.9.21,3.39,3.39,0,0,0-1.24.72,2.79,2.79,0,0,0-.68,1,3.14,3.14,0,0,0-.21,1.15v1.1A3.16,3.16,0,0,0,70,98.93a2.76,2.76,0,0,0,.68,1,3.39,3.39,0,0,0,1.24.72,6.63,6.63,0,0,0,3.76,0,3.35,3.35,0,0,0,1.23-.72,2.79,2.79,0,0,0,.69-1,3.16,3.16,0,0,0,.21-1.15v-1.1a3.18,3.18,0,0,0-.21-1.15,2.79,2.79,0,0,0-.69-1,3.33,3.33,0,0,0-1.23-.72l-.46-.14A6.42,6.42,0,0,0,75.13,92a.72.72,0,0,0-.44-.46,4.88,4.88,0,0,0-.79-.2,2.13,2.13,0,0,1-.82-.31.94.94,0,0,1-.28-.33,1.18,1.18,0,0,1-.11-.41m3,7.25a1.38,1.38,0,0,1-.47,1.11,2.74,2.74,0,0,1-2.85,0,1.39,1.39,0,0,1-.47-1.11v-.68a1.39,1.39,0,0,1,.47-1.11,2.7,2.7,0,0,1,2.85,0,1.38,1.38,0,0,1,.47,1.11Zm3.33,3.3c.55,0,1.47,0,1.82-.4a2.35,2.35,0,0,0,.3-1.42c0-.94,0-1.89,0-2.83a1.39,1.39,0,0,1,.47-1.11,2.77,2.77,0,0,1,2.84,0,1.38,1.38,0,0,1,.47,1.11v2.83a2.36,2.36,0,0,0,.3,1.42c.35.38,1.26.4,1.81.4V96a3.16,3.16,0,0,0-.22-1.15,2.76,2.76,0,0,0-.68-1,3.41,3.41,0,0,0-1.24-.72,6.58,6.58,0,0,0-3.76,0,3.39,3.39,0,0,0-1.23.72,2.79,2.79,0,0,0-.68,1A3.15,3.15,0,0,0,79,96Z"/></g></svg>