<?xml version="1.0" ?><!DOCTYPE svg  PUBLIC '-//W3C//DTD SVG 1.1//EN'  'http://www.w3.org/Graphics/SVG/1.1/DTD/svg11.dtd'><svg enable-background="new 0 0 128 128" height="128px" version="1.1" viewBox="0 0 128 128" width="128px" xml:space="preserve" xmlns="http://www.w3.org/2000/svg" xmlns:xlink="http://www.w3.org/1999/xlink"><g id="OBJECT"><path d="M124,22.323H85.135V5.953c0-1.104-0.896-2-2-2H44.864c-1.104,0-2,0.896-2,2v16.371H4c-2.206,0-4,1.794-4,4v93.724   c0,2.206,1.794,4,4,4h120c2.206,0,4-1.794,4-4V26.323C128,24.118,126.206,22.323,124,22.323z M46.864,7.953h34.271v14.371H46.864   V7.953z M44.864,26.323h38.271H124l-0.001,18.711H4V26.323H44.864z M4,120.047V49.035h119.999l-0.004,71.012H4z M124,122.047v-2h0   L124,122.047z"/></g></svg>